<svg width="24" height="24" viewBox="0 0 34 33" fill="none" xmlns="http://www.w3.org/2000/svg">
<path d="M12.25 26.9166C4.33335 29.0416 4.33335 23.375 1.16669 22.6666M23.3334 31.1666V25.6841C23.3927 25.0086 23.2907 24.3295 23.0341 23.692C22.7775 23.0545 22.3722 22.4731 21.845 21.9866C26.8167 21.4908 32.0417 19.805 32.0417 12.07C32.0413 10.092 31.191 8.18998 29.6667 6.75745C30.3885 5.027 30.3374 3.11428 29.5242 1.41662C29.5242 1.41662 27.6559 0.920786 23.3334 3.51329C19.7044 2.63328 15.879 2.63328 12.25 3.51329C7.92752 0.920786 6.05919 1.41662 6.05919 1.41662C5.24595 3.11428 5.19492 5.027 5.91669 6.75745C4.38106 8.20061 3.52985 10.1199 3.54169 12.1125C3.54169 19.7908 8.76669 21.4766 13.7384 22.0291C13.2174 22.5107 12.8157 23.0851 12.5593 23.7148C12.3028 24.3446 12.1975 25.0155 12.25 25.6841V31.1666" stroke="#FEFEFE" stroke-width="2" stroke-linecap="round" stroke-linejoin="round"/>
</svg>
