<svg width="245" height="30" viewBox="0 0 245 30" fill="none" xmlns="http://www.w3.org/2000/svg">
<rect y="20" width="245" height="10" rx="5" fill="#F9F9F9"/>
<rect y="20" width="245" height="10" rx="5" fill="url(#paint0_radial_0_1)" style="mix-blend-mode:difference"/>
<ellipse cx="120.5" cy="25" rx="5.5" ry="5" fill="#939393"/>
<path d="M112.895 10.1193C112.293 10.1193 111.756 10.0085 111.284 9.78693C110.815 9.56534 110.443 9.25994 110.168 8.87074C109.892 8.48153 109.749 8.03551 109.737 7.53267H111.527C111.547 7.87074 111.689 8.14489 111.953 8.35511C112.217 8.56534 112.531 8.67045 112.895 8.67045C113.185 8.67045 113.44 8.60653 113.662 8.47869C113.886 8.34801 114.061 8.16761 114.186 7.9375C114.314 7.70455 114.378 7.4375 114.378 7.13636C114.378 6.82955 114.313 6.55966 114.182 6.3267C114.054 6.09375 113.876 5.91193 113.649 5.78125C113.422 5.65057 113.162 5.58381 112.869 5.58097C112.614 5.58097 112.365 5.63352 112.124 5.73864C111.885 5.84375 111.699 5.98722 111.565 6.16903L109.925 5.875L110.338 1.27273H115.673V2.78125H111.859L111.634 4.96733H111.685C111.838 4.75142 112.07 4.57244 112.379 4.4304C112.689 4.28835 113.036 4.21733 113.419 4.21733C113.945 4.21733 114.413 4.34091 114.825 4.58807C115.237 4.83523 115.562 5.17472 115.801 5.60653C116.04 6.03551 116.158 6.52983 116.155 7.08949C116.158 7.67756 116.021 8.20028 115.746 8.65767C115.473 9.11222 115.091 9.47017 114.599 9.73153C114.111 9.99006 113.543 10.1193 112.895 10.1193ZM120.864 10.1918C120.131 10.1889 119.5 10.0085 118.972 9.65057C118.446 9.29261 118.041 8.77415 117.757 8.09517C117.476 7.41619 117.337 6.59943 117.339 5.64489C117.339 4.69318 117.48 3.8821 117.761 3.21165C118.045 2.54119 118.45 2.03125 118.976 1.68182C119.504 1.32955 120.134 1.15341 120.864 1.15341C121.594 1.15341 122.222 1.32955 122.747 1.68182C123.276 2.03409 123.682 2.54545 123.966 3.21591C124.25 3.88352 124.391 4.69318 124.388 5.64489C124.388 6.60227 124.246 7.42045 123.962 8.09943C123.68 8.77841 123.277 9.29687 122.751 9.65483C122.226 10.0128 121.597 10.1918 120.864 10.1918ZM120.864 8.66193C121.364 8.66193 121.763 8.41051 122.061 7.90767C122.359 7.40483 122.507 6.65057 122.504 5.64489C122.504 4.98295 122.436 4.43182 122.3 3.99148C122.166 3.55114 121.976 3.22017 121.729 2.99858C121.484 2.77699 121.196 2.66619 120.864 2.66619C120.366 2.66619 119.969 2.91477 119.67 3.41193C119.372 3.90909 119.222 4.65341 119.219 5.64489C119.219 6.31534 119.286 6.875 119.419 7.32386C119.555 7.76989 119.747 8.10511 119.994 8.32955C120.241 8.55114 120.531 8.66193 120.864 8.66193ZM130.48 8.36364V7.90341C130.48 7.55398 130.554 7.23295 130.702 6.94034C130.853 6.64489 131.07 6.40909 131.354 6.23295C131.641 6.05398 131.99 5.96449 132.402 5.96449C132.82 5.96449 133.171 6.05256 133.455 6.22869C133.742 6.40483 133.958 6.64062 134.103 6.93608C134.25 7.22869 134.324 7.55114 134.324 7.90341V8.36364C134.324 8.71307 134.25 9.03551 134.103 9.33097C133.955 9.62358 133.738 9.85795 133.451 10.0341C133.164 10.2131 132.814 10.3026 132.402 10.3026C131.985 10.3026 131.634 10.2131 131.35 10.0341C131.066 9.85795 130.85 9.62358 130.702 9.33097C130.554 9.03551 130.48 8.71307 130.48 8.36364ZM131.721 7.90341V8.36364C131.721 8.56534 131.769 8.75568 131.865 8.93466C131.965 9.11364 132.144 9.20312 132.402 9.20312C132.661 9.20312 132.837 9.11506 132.931 8.93892C133.027 8.76278 133.076 8.57102 133.076 8.36364V7.90341C133.076 7.69602 133.03 7.50284 132.939 7.32386C132.848 7.14489 132.669 7.0554 132.402 7.0554C132.147 7.0554 131.969 7.14489 131.87 7.32386C131.77 7.50284 131.721 7.69602 131.721 7.90341ZM126.002 3.36932V2.90909C126.002 2.55682 126.077 2.23437 126.228 1.94176C126.378 1.64631 126.596 1.41051 126.88 1.23438C127.167 1.05824 127.513 0.97017 127.919 0.97017C128.34 0.97017 128.692 1.05824 128.976 1.23438C129.26 1.41051 129.476 1.64631 129.624 1.94176C129.772 2.23437 129.846 2.55682 129.846 2.90909V3.36932C129.846 3.72159 129.77 4.04403 129.62 4.33665C129.472 4.62926 129.255 4.86364 128.968 5.03977C128.684 5.21307 128.334 5.29972 127.919 5.29972C127.505 5.29972 127.154 5.21165 126.867 5.03551C126.583 4.85653 126.367 4.62216 126.219 4.33239C126.074 4.03977 126.002 3.71875 126.002 3.36932ZM127.25 2.90909V3.36932C127.25 3.5767 127.299 3.76847 127.395 3.9446C127.495 4.12074 127.669 4.20881 127.919 4.20881C128.181 4.20881 128.358 4.12074 128.452 3.9446C128.549 3.76847 128.597 3.5767 128.597 3.36932V2.90909C128.597 2.7017 128.551 2.50852 128.461 2.32955C128.37 2.15057 128.189 2.06108 127.919 2.06108C127.667 2.06108 127.492 2.15199 127.395 2.33381C127.299 2.51562 127.25 2.70739 127.25 2.90909ZM126.564 10L132.564 1.27273H133.681L127.681 10H126.564Z" fill="white"/>
<defs>
<radialGradient id="paint0_radial_0_1" cx="0" cy="0" r="1" gradientUnits="userSpaceOnUse" gradientTransform="translate(-3.01919e-06 24.9997) scale(132.152 5874)">
<stop offset="0.913195" stop-color="#909090"/>
<stop offset="0.913295" stop-color="#5C5B5B" stop-opacity="0"/>
</radialGradient>
</defs>
</svg>
