<svg width="24" height="24" viewBox="0 0 38 34" fill="none" xmlns="http://www.w3.org/2000/svg">
<path d="M25.3333 11.3334C27.8529 11.3334 30.2692 12.2289 32.0508 13.823C33.8324 15.417 34.8333 17.579 34.8333 19.8334V29.75H28.5V19.8334C28.5 19.0819 28.1663 18.3613 27.5725 17.8299C26.9786 17.2986 26.1732 17 25.3333 17C24.4935 17 23.688 17.2986 23.0941 17.8299C22.5003 18.3613 22.1666 19.0819 22.1666 19.8334V29.75H15.8333V19.8334C15.8333 17.579 16.8342 15.417 18.6158 13.823C20.3974 12.2289 22.8138 11.3334 25.3333 11.3334Z" stroke="white" stroke-width="2" stroke-linecap="round" stroke-linejoin="round"/>
<path d="M9.50002 12.75H3.16669V29.75H9.50002V12.75Z" stroke="white" stroke-width="2" stroke-linecap="round" stroke-linejoin="round"/>
<path d="M6.33335 8.50004C8.08226 8.50004 9.50002 7.23151 9.50002 5.66671C9.50002 4.1019 8.08226 2.83337 6.33335 2.83337C4.58445 2.83337 3.16669 4.1019 3.16669 5.66671C3.16669 7.23151 4.58445 8.50004 6.33335 8.50004Z" stroke="white" stroke-width="2" stroke-linecap="round" stroke-linejoin="round"/>
</svg>
