<svg width="245" height="30" viewBox="0 0 245 30" fill="none" xmlns="http://www.w3.org/2000/svg">
<rect y="20" width="245" height="10" rx="5" fill="#F9F9F9"/>
<rect y="20" width="245" height="10" rx="5" fill="url(#paint0_radial_0_1)" style="mix-blend-mode:difference"/>
<ellipse cx="62.5" cy="25" rx="5.5" ry="5" fill="#939393"/>
<path d="M112.933 10.1193C112.297 10.1193 111.73 10.0099 111.233 9.79119C110.739 9.5696 110.348 9.26562 110.061 8.87926C109.777 8.49006 109.631 8.04119 109.622 7.53267H111.48C111.491 7.74574 111.561 7.93324 111.689 8.09517C111.82 8.25426 111.993 8.37784 112.209 8.46591C112.425 8.55398 112.668 8.59801 112.938 8.59801C113.219 8.59801 113.467 8.5483 113.683 8.44886C113.899 8.34943 114.068 8.21165 114.19 8.03551C114.313 7.85937 114.374 7.65625 114.374 7.42614C114.374 7.19318 114.308 6.98722 114.178 6.80824C114.05 6.62642 113.865 6.48437 113.624 6.3821C113.385 6.27983 113.101 6.22869 112.771 6.22869H111.957V4.87358H112.771C113.05 4.87358 113.295 4.82528 113.509 4.72869C113.724 4.6321 113.892 4.49858 114.011 4.32812C114.131 4.15483 114.19 3.95312 114.19 3.72301C114.19 3.50426 114.138 3.3125 114.033 3.14773C113.93 2.98011 113.786 2.84943 113.598 2.75568C113.413 2.66193 113.197 2.61506 112.95 2.61506C112.7 2.61506 112.472 2.66051 112.264 2.75142C112.057 2.83949 111.891 2.96591 111.766 3.13068C111.641 3.29545 111.574 3.48864 111.565 3.71023H109.797C109.805 3.20739 109.949 2.7642 110.227 2.38068C110.506 1.99716 110.881 1.69744 111.352 1.48153C111.827 1.26278 112.362 1.15341 112.959 1.15341C113.561 1.15341 114.088 1.26278 114.54 1.48153C114.991 1.70028 115.342 1.99574 115.592 2.3679C115.845 2.73722 115.97 3.15199 115.967 3.61222C115.97 4.10085 115.818 4.50852 115.511 4.83523C115.207 5.16193 114.811 5.36932 114.322 5.45739V5.52557C114.964 5.60795 115.453 5.83097 115.788 6.1946C116.126 6.5554 116.294 7.0071 116.291 7.54972C116.294 8.04688 116.151 8.48864 115.861 8.875C115.574 9.26136 115.178 9.56534 114.672 9.78693C114.166 10.0085 113.587 10.1193 112.933 10.1193ZM120.843 10.1193C120.207 10.1193 119.64 10.0099 119.143 9.79119C118.649 9.5696 118.258 9.26562 117.971 8.87926C117.687 8.49006 117.541 8.04119 117.532 7.53267H119.39C119.402 7.74574 119.471 7.93324 119.599 8.09517C119.73 8.25426 119.903 8.37784 120.119 8.46591C120.335 8.55398 120.578 8.59801 120.848 8.59801C121.129 8.59801 121.377 8.5483 121.593 8.44886C121.809 8.34943 121.978 8.21165 122.1 8.03551C122.223 7.85937 122.284 7.65625 122.284 7.42614C122.284 7.19318 122.218 6.98722 122.088 6.80824C121.96 6.62642 121.775 6.48437 121.534 6.3821C121.295 6.27983 121.011 6.22869 120.681 6.22869H119.868V4.87358H120.681C120.96 4.87358 121.206 4.82528 121.419 4.72869C121.635 4.6321 121.802 4.49858 121.922 4.32812C122.041 4.15483 122.1 3.95312 122.1 3.72301C122.1 3.50426 122.048 3.3125 121.943 3.14773C121.841 2.98011 121.696 2.84943 121.508 2.75568C121.324 2.66193 121.108 2.61506 120.86 2.61506C120.61 2.61506 120.382 2.66051 120.174 2.75142C119.967 2.83949 119.801 2.96591 119.676 3.13068C119.551 3.29545 119.484 3.48864 119.475 3.71023H117.707C117.716 3.20739 117.859 2.7642 118.137 2.38068C118.416 1.99716 118.791 1.69744 119.262 1.48153C119.737 1.26278 120.272 1.15341 120.869 1.15341C121.471 1.15341 121.998 1.26278 122.45 1.48153C122.902 1.70028 123.252 1.99574 123.502 2.3679C123.755 2.73722 123.88 3.15199 123.877 3.61222C123.88 4.10085 123.728 4.50852 123.422 4.83523C123.118 5.16193 122.721 5.36932 122.233 5.45739V5.52557C122.875 5.60795 123.363 5.83097 123.699 6.1946C124.037 6.5554 124.204 7.0071 124.201 7.54972C124.204 8.04688 124.061 8.48864 123.771 8.875C123.484 9.26136 123.088 9.56534 122.582 9.78693C122.076 10.0085 121.497 10.1193 120.843 10.1193ZM130.305 8.36364V7.90341C130.305 7.55398 130.379 7.23295 130.526 6.94034C130.677 6.64489 130.894 6.40909 131.178 6.23295C131.465 6.05398 131.815 5.96449 132.227 5.96449C132.644 5.96449 132.995 6.05256 133.279 6.22869C133.566 6.40483 133.782 6.64062 133.927 6.93608C134.075 7.22869 134.148 7.55114 134.148 7.90341V8.36364C134.148 8.71307 134.075 9.03551 133.927 9.33097C133.779 9.62358 133.562 9.85795 133.275 10.0341C132.988 10.2131 132.638 10.3026 132.227 10.3026C131.809 10.3026 131.458 10.2131 131.174 10.0341C130.89 9.85795 130.674 9.62358 130.526 9.33097C130.379 9.03551 130.305 8.71307 130.305 8.36364ZM131.545 7.90341V8.36364C131.545 8.56534 131.593 8.75568 131.69 8.93466C131.789 9.11364 131.968 9.20312 132.227 9.20312C132.485 9.20312 132.661 9.11506 132.755 8.93892C132.852 8.76278 132.9 8.57102 132.9 8.36364V7.90341C132.9 7.69602 132.854 7.50284 132.763 7.32386C132.673 7.14489 132.494 7.0554 132.227 7.0554C131.971 7.0554 131.793 7.14489 131.694 7.32386C131.594 7.50284 131.545 7.69602 131.545 7.90341ZM125.826 3.36932V2.90909C125.826 2.55682 125.901 2.23437 126.052 1.94176C126.202 1.64631 126.42 1.41051 126.704 1.23438C126.991 1.05824 127.337 0.97017 127.744 0.97017C128.164 0.97017 128.516 1.05824 128.8 1.23438C129.085 1.41051 129.3 1.64631 129.448 1.94176C129.596 2.23437 129.67 2.55682 129.67 2.90909V3.36932C129.67 3.72159 129.594 4.04403 129.444 4.33665C129.296 4.62926 129.079 4.86364 128.792 5.03977C128.508 5.21307 128.158 5.29972 127.744 5.29972C127.329 5.29972 126.978 5.21165 126.691 5.03551C126.407 4.85653 126.191 4.62216 126.043 4.33239C125.898 4.03977 125.826 3.71875 125.826 3.36932ZM127.075 2.90909V3.36932C127.075 3.5767 127.123 3.76847 127.219 3.9446C127.319 4.12074 127.494 4.20881 127.744 4.20881C128.005 4.20881 128.183 4.12074 128.276 3.9446C128.373 3.76847 128.421 3.5767 128.421 3.36932V2.90909C128.421 2.7017 128.376 2.50852 128.285 2.32955C128.194 2.15057 128.013 2.06108 127.744 2.06108C127.491 2.06108 127.316 2.15199 127.219 2.33381C127.123 2.51562 127.075 2.70739 127.075 2.90909ZM126.388 10L132.388 1.27273H133.505L127.505 10H126.388Z" fill="white"/>
<defs>
<radialGradient id="paint0_radial_0_1" cx="0" cy="0" r="1" gradientUnits="userSpaceOnUse" gradientTransform="translate(-3.01919e-06 24.9997) scale(132.152 5874)">
<stop offset="0.475695" stop-color="#909090"/>
<stop offset="0.475795" stop-color="#5C5B5B" stop-opacity="0"/>
</radialGradient>
</defs>
</svg>
