<svg width="245" height="33" viewBox="0 0 245 33" fill="none" xmlns="http://www.w3.org/2000/svg">
<rect y="23" width="245" height="10" rx="5" fill="#F9F9F9"/>
<rect y="23" width="245" height="10" rx="5" fill="url(#paint0_radial_0_1)" style="mix-blend-mode:difference"/>
<ellipse cx="89.5" cy="28" rx="5.5" ry="5" fill="#939393"/>
<path d="M109.575 8.46591V7.01278L113.219 1.27273H114.472V3.28409H113.73L111.433 6.91903V6.98722H116.611V8.46591H109.575ZM113.764 10V8.02273L113.798 7.37926V1.27273H115.528V10H113.764ZM117.84 10V8.67045L120.947 5.79403C121.211 5.53835 121.433 5.30824 121.612 5.10369C121.793 4.89915 121.931 4.69886 122.025 4.50284C122.119 4.30398 122.165 4.08949 122.165 3.85938C122.165 3.60369 122.107 3.38352 121.991 3.19886C121.874 3.01136 121.715 2.8679 121.513 2.76847C121.312 2.66619 121.083 2.61506 120.827 2.61506C120.56 2.61506 120.327 2.66903 120.129 2.77699C119.93 2.88494 119.776 3.03977 119.668 3.24148C119.56 3.44318 119.506 3.68324 119.506 3.96165H117.755C117.755 3.39062 117.884 2.89489 118.143 2.47443C118.401 2.05398 118.763 1.72869 119.229 1.49858C119.695 1.26847 120.232 1.15341 120.84 1.15341C121.465 1.15341 122.009 1.2642 122.472 1.4858C122.938 1.70455 123.3 2.00852 123.559 2.39773C123.817 2.78693 123.947 3.23295 123.947 3.7358C123.947 4.06534 123.881 4.39062 123.751 4.71165C123.623 5.03267 123.394 5.3892 123.065 5.78125C122.735 6.17045 122.271 6.63778 121.671 7.18324L120.397 8.43182V8.49148H124.062V10H117.84ZM130.176 8.36364V7.90341C130.176 7.55398 130.25 7.23295 130.397 6.94034C130.548 6.64489 130.765 6.40909 131.049 6.23295C131.336 6.05398 131.686 5.96449 132.098 5.96449C132.515 5.96449 132.866 6.05256 133.15 6.22869C133.437 6.40483 133.653 6.64062 133.798 6.93608C133.946 7.22869 134.02 7.55114 134.02 7.90341V8.36364C134.02 8.71307 133.946 9.03551 133.798 9.33097C133.65 9.62358 133.433 9.85795 133.146 10.0341C132.859 10.2131 132.51 10.3026 132.098 10.3026C131.68 10.3026 131.329 10.2131 131.045 10.0341C130.761 9.85795 130.545 9.62358 130.397 9.33097C130.25 9.03551 130.176 8.71307 130.176 8.36364ZM131.416 7.90341V8.36364C131.416 8.56534 131.464 8.75568 131.561 8.93466C131.66 9.11364 131.839 9.20312 132.098 9.20312C132.356 9.20312 132.532 9.11506 132.626 8.93892C132.723 8.76278 132.771 8.57102 132.771 8.36364V7.90341C132.771 7.69602 132.725 7.50284 132.635 7.32386C132.544 7.14489 132.365 7.0554 132.098 7.0554C131.842 7.0554 131.664 7.14489 131.565 7.32386C131.466 7.50284 131.416 7.69602 131.416 7.90341ZM125.697 3.36932V2.90909C125.697 2.55682 125.772 2.23437 125.923 1.94176C126.074 1.64631 126.291 1.41051 126.575 1.23438C126.862 1.05824 127.208 0.97017 127.615 0.97017C128.035 0.97017 128.387 1.05824 128.672 1.23438C128.956 1.41051 129.172 1.64631 129.319 1.94176C129.467 2.23437 129.541 2.55682 129.541 2.90909V3.36932C129.541 3.72159 129.466 4.04403 129.315 4.33665C129.167 4.62926 128.95 4.86364 128.663 5.03977C128.379 5.21307 128.029 5.29972 127.615 5.29972C127.2 5.29972 126.849 5.21165 126.562 5.03551C126.278 4.85653 126.062 4.62216 125.914 4.33239C125.77 4.03977 125.697 3.71875 125.697 3.36932ZM126.946 2.90909V3.36932C126.946 3.5767 126.994 3.76847 127.091 3.9446C127.19 4.12074 127.365 4.20881 127.615 4.20881C127.876 4.20881 128.054 4.12074 128.147 3.9446C128.244 3.76847 128.292 3.5767 128.292 3.36932V2.90909C128.292 2.7017 128.247 2.50852 128.156 2.32955C128.065 2.15057 127.885 2.06108 127.615 2.06108C127.362 2.06108 127.187 2.15199 127.091 2.33381C126.994 2.51562 126.946 2.70739 126.946 2.90909ZM126.26 10L132.26 1.27273H133.376L127.376 10H126.26Z" fill="white"/>
<defs>
<radialGradient id="paint0_radial_0_1" cx="0" cy="0" r="1" gradientUnits="userSpaceOnUse" gradientTransform="translate(-3.01919e-06 27.9997) scale(132.152 5874)">
<stop offset="0.684028" stop-color="#909090"/>
<stop offset="0.684128" stop-color="#5C5B5B" stop-opacity="0"/>
</radialGradient>
</defs>
</svg>
